<?xml version="1.0" encoding="UTF-8"?><svg id="a" xmlns="http://www.w3.org/2000/svg" width="1850.5532" height="2158.8215" viewBox="0 0 1850.5532 2158.8215"><defs><style>.b{fill:none;stroke:#64e9ff;stroke-miterlimit:10;stroke-width:12px;}</style></defs><path class="b" d="m809.2811,2138.6222c-6.9112-9.5003-14.2704-20.7726-22.293-34.668-49.4435-85.6386-25.1948-99.6386-74.6382-185.2772-49.4433-85.6383-73.692-71.6383-123.1353-157.2766-49.4434-85.6385-25.1947-99.6385-74.6381-185.277-49.4438-85.6391-73.6925-71.6391-123.1362-157.2782-49.4438-85.6392-25.1951-99.6392-74.6389-185.2783-49.4435-85.6386-73.6922-71.6386-123.1357-157.2772-49.4429-85.6376-25.1942-99.6376-74.6371-185.2752-7.0736-12.2519-13.6316-22.4644-19.8214-31.2211"/><path class="b" d="m309.04,2156.5281c-49.4433-85.6383-73.692-71.6383-123.1353-157.2766-49.4434-85.6385-25.1947-99.6385-74.6381-185.277-25.4927-44.1546-44.2877-61.8219-63.2915-80.315"/><path class="b" d="m502.7954,2137.7829c-5.5717-18.7222-13.8395-40.0655-31.3491-70.3929-49.4433-85.6383-73.692-71.6383-123.1353-157.2766-49.4434-85.6385-25.1947-99.6385-74.6381-185.277-49.4438-85.6391-73.6925-71.6391-123.1362-157.2782-41.3151-71.5599-31.1764-93.0996-55.5733-148.2127"/><path class="b" d="m671.5643,2158.8215c-37.5785-71.5972-19.5369-89.1243-65.6813-169.0485-49.4433-85.6383-73.692-71.6383-123.1353-157.2766-49.4434-85.6385-25.1947-99.6385-74.6381-185.277-49.4438-85.6391-73.6925-71.6391-123.1362-157.2782-49.4438-85.6392-25.1951-99.6392-74.6389-185.2783-49.4435-85.6386-73.6922-71.6386-123.1357-157.2772-18.7248-32.4323-26.8804-54.59-32.4721-74.2553"/><path class="b" d="m1011.4147,2139.9543c-29.9966-36.2057-52.9072-44.388-89.9899-108.6171-49.4435-85.6386-25.1948-99.6386-74.6382-185.2772-49.4433-85.6383-73.692-71.6383-123.1353-157.2766-49.4434-85.6385-25.1947-99.6385-74.6381-185.277-49.4438-85.6391-73.6925-71.6391-123.1362-157.2782-49.4438-85.6392-25.1951-99.6392-74.6389-185.2783-49.4435-85.6386-73.6922-71.6386-123.1357-157.2772-49.4429-85.6376-25.1942-99.6376-74.6371-185.2752-49.4434-85.6385-73.6921-71.6385-123.1356-157.2771-49.4442-85.6398-25.1954-99.6398-74.6396-185.2796-4.8767-8.4466-9.5082-15.9239-13.943-22.6232"/><path class="b" d="m1185.4231,2122.4787c-1.9929-3.682-4.1299-7.5042-6.4258-11.4808-49.4436-85.6388-73.6923-71.6388-123.1359-157.2777-49.4435-85.6386-25.1948-99.6386-74.6382-185.2772-49.4433-85.6383-73.692-71.6383-123.1353-157.2766-49.4434-85.6385-25.1947-99.6385-74.6381-185.277-49.4438-85.6391-73.6925-71.6391-123.1362-157.2782-49.4438-85.6392-25.1951-99.6392-74.6389-185.2783-49.4435-85.6386-73.6922-71.6386-123.1357-157.2772s-25.1942-99.6376-74.6371-185.2752c-49.4434-85.6385-73.6921-71.6385-123.1356-157.2771-49.4442-85.6398-25.1954-99.6398-74.6396-185.2796-49.4437-85.639-73.6924-71.639-123.1361-157.2779"/><path class="b" d="m1370.1581,2083.9822c-5.5501-16.7852-13.7664-36.1623-28.7545-62.1224-49.4436-85.6388-73.6923-71.6388-123.1359-157.2777-49.4435-85.6386-25.1948-99.6386-74.6382-185.2772-49.4433-85.6383-73.692-71.6383-123.1353-157.2766-49.4434-85.6385-25.1947-99.6385-74.6381-185.277-49.4438-85.6391-73.6925-71.6391-123.1362-157.2782-49.4438-85.6392-25.1951-99.6392-74.6389-185.2783-49.4435-85.6386-73.6922-71.6386-123.1357-157.2772-49.4429-85.6376-25.1942-99.6376-74.6371-185.2752s-73.6921-71.6385-123.1356-157.2771c-49.4442-85.6398-25.1954-99.6398-74.6396-185.2796-28.4783-49.3259-48.5983-65.5969-69.9883-86.8905"/><path class="b" d="m1534.0077,2098.1598c-27.7363-59.4202-15.4565-79.9398-58.1674-153.9171-49.4436-85.6388-73.6923-71.6388-123.1359-157.2777-49.4435-85.6386-25.1948-99.6386-74.6382-185.2772s-73.692-71.6383-123.1353-157.2766c-49.4434-85.6385-25.1947-99.6385-74.6381-185.277-49.4438-85.6391-73.6925-71.6391-123.1362-157.2782-49.4438-85.6392-25.1951-99.6392-74.6389-185.2783-49.4435-85.6386-73.6922-71.6386-123.1357-157.2772-49.4429-85.6376-25.1942-99.6376-74.6371-185.2752-49.4434-85.6385-73.6921-71.6385-123.1356-157.2771-49.4442-85.6398-25.1954-99.6398-74.6396-185.2796-5.4054-9.3624-10.5096-17.5339-15.3786-24.7749"/><path class="b" d="m1716.0944,2098.1603c-9.4463-11.6736-19.6255-26.2457-31.1808-46.2601-49.4427-85.6373-25.194-99.6373-74.6367-185.2745-49.4436-85.6388-73.6923-71.6388-123.1359-157.2777s-25.1948-99.6386-74.6382-185.2772c-49.4433-85.6383-73.692-71.6383-123.1353-157.2766-49.4434-85.6385-25.1947-99.6385-74.6381-185.277-49.4438-85.6391-73.6925-71.6391-123.1362-157.2782-49.4438-85.6392-25.1951-99.6392-74.6389-185.2783-49.4435-85.6386-73.6922-71.6386-123.1357-157.2772-49.4429-85.6376-25.1942-99.6376-74.6371-185.2752s-73.6921-71.6385-123.1356-157.2771c-37.0831-64.2299-32.714-88.1623-49.071-132.2435"/><path class="b" d="m1755.7217,1809.1991c-3.2057-6.2794-6.8458-12.9811-11.0081-20.1904-49.4436-85.6388-73.6923-71.6388-123.1359-157.2777s-25.1948-99.6386-74.6382-185.2772-73.692-71.6383-123.1353-157.2766c-49.4434-85.6385-25.1947-99.6385-74.6381-185.277-49.4438-85.6391-73.6925-71.6391-123.1362-157.2782-49.4438-85.6392-25.1951-99.6392-74.6389-185.2783-49.4435-85.6386-73.6922-71.6386-123.1357-157.2772-49.4429-85.6376-25.1942-99.6376-74.6371-185.2752s-73.6921-71.6385-123.1356-157.2771c-22.785-39.4647-29.9207-63.7162-35.8303-86.7757"/><path class="b" d="m1789.1603,1602.7745c-9.9989-12.0686-20.7851-27.2509-33.146-48.6606-49.4435-85.6386-25.1948-99.6386-74.6382-185.2772-49.4433-85.6383-73.692-71.6383-123.1353-157.2766-49.4434-85.6385-25.1947-99.6385-74.6381-185.277-49.4438-85.6391-73.6925-71.6391-123.1362-157.2782-49.4438-85.6392-25.1951-99.6392-74.6389-185.2783-49.4435-85.6386-73.6922-71.6386-123.1357-157.2772-49.4429-85.6376-25.1942-99.6376-74.6371-185.2752s-73.6921-71.6385-123.1356-157.2771c-4.1413-7.1729-7.7656-13.8433-10.9596-20.0953"/><path class="b" d="m1771.4214,1229.8252c-24.866-26.495-46.4213-39.8975-78.7441-95.8821-49.4434-85.6385-25.1947-99.6385-74.6381-185.277-49.4438-85.6391-73.6925-71.6391-123.1362-157.2782-49.4438-85.6392-25.1951-99.6392-74.6389-185.2783-49.4435-85.6386-73.6922-71.6386-123.1357-157.2772s-25.1942-99.6376-74.6371-185.2752c-47.9702-83.0867-72.2247-72.3844-118.7815-149.8818"/><path class="b" d="m1752.4758,871.0491c-49.4438-85.6391-73.6925-71.6391-123.1362-157.2782-49.4438-85.6392-25.1951-99.6392-74.6389-185.2783-49.4435-85.6386-73.6922-71.6386-123.1357-157.2772-49.4429-85.6376-25.1942-99.6376-74.6371-185.2752-26.4621-45.8338-45.7075-63.1271-65.461-82.4298"/><path class="b" d="m1763.7762,636.1538c-49.4438-85.6392-25.1951-99.6392-74.6389-185.2783-49.4435-85.6386-73.6922-71.6386-123.1357-157.2772-49.4429-85.6376-25.1942-99.6376-74.6371-185.2752-5.9434-10.2942-11.5227-19.1487-16.8255-26.9096"/><path class="b" d="m1756.896,289.6374c-16.7701-16.4483-34.0195-34.792-56.4578-73.6561-37.7296-65.3496-32.5476-88.9836-49.9452-134.5679"/></svg>